<svg width="131" height="130" viewBox="0 0 131 130" fill="none" xmlns="http://www.w3.org/2000/svg">
<path fill-rule="evenodd" clip-rule="evenodd" d="M35.5709 14.7143C44.714 8.61895 56.7236 14.207 58.5048 24.4703H76.3337C84.5604 24.4703 91.2295 31.1394 91.2295 39.3661C91.2295 41.6098 89.4106 43.4286 87.167 43.4286C84.9233 43.4286 83.1045 41.6098 83.1045 39.3661C83.1045 35.6267 80.0731 32.5953 76.3337 32.5953H58.7295V100.304H76.3337C80.0731 100.304 83.1045 97.2722 83.1045 93.5328C83.1045 91.2891 84.9233 89.4703 87.167 89.4703C89.4106 89.4703 91.2295 91.2891 91.2295 93.5328C91.2295 101.76 84.5604 108.429 76.3337 108.429H58.5048C56.7236 118.692 44.714 124.28 35.5709 118.185L24.7376 110.962C20.5936 108.2 18.1045 103.549 18.1045 98.5683V34.3306C18.1045 29.3501 20.5936 24.6992 24.7376 21.9365L35.5709 14.7143ZM95.1277 78.706C93.5412 77.1194 93.5412 74.5472 95.1277 72.9607L99.0259 69.0625L70.917 69.0625C68.6733 69.0625 66.8545 67.2437 66.8545 65C66.8545 62.7563 68.6733 60.9375 70.917 60.9375L99.0259 60.9375L95.1277 57.0393C93.5412 55.4528 93.5412 52.8806 95.1277 51.294C96.7142 49.7075 99.2864 49.7075 100.873 51.294L107.876 58.2972C111.578 61.9991 111.578 68.0009 107.876 71.7028L100.873 78.706C99.2864 80.2925 96.7142 80.2925 95.1277 78.706Z" fill="url(#paint0_linear_193_19988)"/>
<defs>
<linearGradient id="paint0_linear_193_19988" x1="64.3785" y1="12.1875" x2="64.3785" y2="120.711" gradientUnits="userSpaceOnUse">
<stop stop-color="#F34545"/>
<stop offset="1" stop-color="#FFB4B4"/>
</linearGradient>
</defs>
</svg>
