<svg width="76" height="96" viewBox="0 0 76 96" fill="none" xmlns="http://www.w3.org/2000/svg">
<rect width="76" height="96" rx="12" fill="#F7F6F9"/>
<path fill-rule="evenodd" clip-rule="evenodd" d="M28.75 28C28.75 26.2051 30.2051 24.75 32 24.75H40C40.4142 24.75 40.75 24.4142 40.75 24C40.75 23.5858 40.4142 23.25 40 23.25H32C29.3766 23.25 27.25 25.3766 27.25 28V40C27.25 42.6234 29.3766 44.75 32 44.75H44C46.6234 44.75 48.75 42.6234 48.75 40V32C48.75 31.5858 48.4142 31.25 48 31.25C47.5858 31.25 47.25 31.5858 47.25 32V35.5091C47.2049 35.473 47.158 35.4387 47.1094 35.4063L44.7285 33.819C43.142 32.7613 41.0295 32.9705 39.6812 34.3188L36.3188 37.6812C34.9705 39.0295 32.858 39.2387 31.2715 38.181L28.75 36.5V28ZM45.75 24C45.75 23.5858 45.4142 23.25 45 23.25C44.5858 23.25 44.25 23.5858 44.25 24V26.25H42C41.5858 26.25 41.25 26.5858 41.25 27C41.25 27.4142 41.5858 27.75 42 27.75H44.25V30C44.25 30.4142 44.5858 30.75 45 30.75C45.4142 30.75 45.75 30.4142 45.75 30V27.75H48C48.4142 27.75 48.75 27.4142 48.75 27C48.75 26.5858 48.4142 26.25 48 26.25H45.75V24ZM34.5 33C35.8807 33 37 31.8807 37 30.5C37 29.1193 35.8807 28 34.5 28C33.1193 28 32 29.1193 32 30.5C32 31.8807 33.1193 33 34.5 33Z" fill="#5458EA"/>
<path d="M8.4657 62.8V59.68H9.2817C9.9937 58.272 10.3497 56.308 10.3497 53.788V52.6H16.2057V59.68H17.2497L17.0457 62.8H15.8217V61H9.9057L9.7617 62.8H8.4657ZM10.8537 59.68H14.7297V53.932H11.7657V54.892C11.7657 56.852 11.4617 58.448 10.8537 59.68ZM21.4103 61.144C20.4503 61.144 19.6503 60.824 19.0103 60.184C18.3703 59.544 18.0503 58.764 18.0503 57.844C18.0503 56.924 18.3743 56.144 19.0223 55.504C19.6703 54.856 20.4743 54.532 21.4343 54.532C22.3943 54.532 23.1943 54.852 23.8343 55.492C24.4823 56.132 24.8063 56.916 24.8063 57.844C24.8063 58.756 24.4823 59.536 23.8343 60.184C23.1863 60.824 22.3783 61.144 21.4103 61.144ZM21.4343 59.884C22.0103 59.884 22.4743 59.688 22.8263 59.296C23.1783 58.904 23.3543 58.42 23.3543 57.844C23.3543 57.276 23.1703 56.796 22.8023 56.404C22.4343 56.004 21.9703 55.804 21.4103 55.804C20.8423 55.804 20.3823 56 20.0303 56.392C19.6783 56.784 19.5023 57.268 19.5023 57.844C19.5023 58.404 19.6863 58.884 20.0543 59.284C20.4223 59.684 20.8823 59.884 21.4343 59.884ZM29.381 59.884C29.917 59.884 30.353 59.7 30.689 59.332C31.033 58.956 31.205 58.492 31.205 57.94C31.205 57.396 31.025 56.936 30.665 56.56C30.313 56.176 29.877 55.984 29.357 55.984C28.829 55.984 28.393 56.172 28.049 56.548C27.713 56.924 27.545 57.388 27.545 57.94C27.545 58.484 27.721 58.944 28.073 59.32C28.425 59.696 28.861 59.884 29.381 59.884ZM29.357 61.144C28.333 61.144 27.533 60.82 26.957 60.172C26.381 59.524 26.093 58.616 26.093 57.448C26.093 57.072 26.101 56.744 26.117 56.464C26.141 56.176 26.181 55.868 26.237 55.54C26.293 55.204 26.377 54.912 26.489 54.664C26.609 54.416 26.757 54.18 26.933 53.956C27.117 53.724 27.349 53.532 27.629 53.38C27.917 53.22 28.249 53.1 28.625 53.02L32.081 52.3L32.321 53.464L28.865 54.22C28.289 54.34 27.877 54.556 27.629 54.868C27.381 55.172 27.237 55.556 27.197 56.02C27.389 55.7 27.689 55.424 28.097 55.192C28.513 54.952 29.025 54.832 29.633 54.832C30.457 54.832 31.165 55.132 31.757 55.732C32.357 56.324 32.657 57.052 32.657 57.916C32.657 58.804 32.341 59.564 31.709 60.196C31.085 60.828 30.301 61.144 29.357 61.144ZM39.4526 61H38.0126V60.22C37.5006 60.828 36.8166 61.132 35.9606 61.132C35.3286 61.132 34.7926 60.96 34.3526 60.616C33.9206 60.264 33.7046 59.776 33.7046 59.152C33.7046 58.472 33.9406 57.956 34.4126 57.604C34.8846 57.252 35.5046 57.076 36.2726 57.076C36.8886 57.076 37.4726 57.164 38.0246 57.34V57.22C38.0246 56.78 37.8886 56.444 37.6166 56.212C37.3526 55.98 36.9686 55.864 36.4646 55.864C35.8886 55.864 35.2846 55.996 34.6526 56.26L34.2566 55.096C35.0406 54.744 35.8446 54.568 36.6686 54.568C37.5886 54.568 38.2806 54.8 38.7446 55.264C39.2166 55.728 39.4526 56.388 39.4526 57.244V61ZM38.0486 58.708V58.348C37.6166 58.18 37.1326 58.096 36.5966 58.096C36.1406 58.096 35.7846 58.184 35.5286 58.36C35.2726 58.536 35.1446 58.784 35.1446 59.104C35.1446 59.392 35.2606 59.62 35.4926 59.788C35.7246 59.956 36.0166 60.04 36.3686 60.04C36.8566 60.04 37.2566 59.916 37.5686 59.668C37.8886 59.42 38.0486 59.1 38.0486 58.708ZM41.1796 61V54.664H44.4316C45.0636 54.664 45.5676 54.808 45.9436 55.096C46.3276 55.376 46.5196 55.76 46.5196 56.248C46.5196 56.912 46.1796 57.396 45.4996 57.7C46.3716 57.948 46.8076 58.476 46.8076 59.284C46.8076 59.82 46.5956 60.24 46.1716 60.544C45.7556 60.848 45.1876 61 44.4676 61H41.1796ZM42.6076 59.848H44.2516C44.5956 59.848 44.8596 59.776 45.0436 59.632C45.2356 59.48 45.3316 59.28 45.3316 59.032C45.3316 58.792 45.2316 58.604 45.0316 58.468C44.8396 58.332 44.5556 58.264 44.1796 58.264H42.6076V59.848ZM42.6076 57.28H44.0956C44.3916 57.28 44.6236 57.208 44.7916 57.064C44.9596 56.92 45.0436 56.732 45.0436 56.5C45.0436 56.284 44.9676 56.112 44.8156 55.984C44.6636 55.848 44.4316 55.78 44.1196 55.78H42.6076V57.28ZM48.2577 61V54.664H49.6737V58.912C51.0017 57.024 52.0017 55.608 52.6737 54.664H54.0417V61H52.6377V56.776L49.6257 61H48.2577ZM57.2192 61V55.912H55.1792V54.664H60.7232V55.912H58.6832V61H57.2192ZM61.8749 61V54.664H63.3269V56.884H64.7789C65.5309 56.884 66.1389 57.052 66.6029 57.388C67.0669 57.724 67.2989 58.224 67.2989 58.888C67.2989 59.544 67.0829 60.06 66.6509 60.436C66.2189 60.812 65.6309 61 64.8869 61H61.8749ZM63.3269 59.824H64.6949C65.0629 59.824 65.3469 59.744 65.5469 59.584C65.7469 59.424 65.8469 59.192 65.8469 58.888C65.8469 58.608 65.7429 58.392 65.5349 58.24C65.3349 58.088 65.0469 58.012 64.6709 58.012H63.3269V59.824ZM26.3834 73.92V71.544C25.9994 71.912 25.5154 72.096 24.9314 72.096C24.1634 72.096 23.5434 71.808 23.0714 71.232C22.5994 70.648 22.3634 69.848 22.3634 68.832C22.3634 67.824 22.5994 67.028 23.0714 66.444C23.5514 65.86 24.1754 65.568 24.9434 65.568C25.4954 65.568 25.9754 65.78 26.3834 66.204V63.6H27.8354V66.204C28.2434 65.78 28.7234 65.568 29.2754 65.568C30.0434 65.568 30.6634 65.864 31.1354 66.456C31.6154 67.04 31.8554 67.836 31.8554 68.844C31.8554 69.86 31.6194 70.656 31.1474 71.232C30.6754 71.808 30.0554 72.096 29.2874 72.096C28.7034 72.096 28.2194 71.912 27.8354 71.544V73.92H26.3834ZM25.3634 70.884C25.7234 70.884 26.0634 70.744 26.3834 70.464V67.248C26.0634 66.952 25.7234 66.804 25.3634 66.804C24.8674 66.804 24.4874 66.988 24.2234 67.356C23.9594 67.724 23.8274 68.224 23.8274 68.856C23.8274 69.496 23.9554 69.996 24.2114 70.356C24.4754 70.708 24.8594 70.884 25.3634 70.884ZM28.8674 70.884C29.3714 70.884 29.7514 70.708 30.0074 70.356C30.2634 69.996 30.3914 69.492 30.3914 68.844C30.3914 68.22 30.2594 67.724 29.9954 67.356C29.7394 66.988 29.3634 66.804 28.8674 66.804C28.5314 66.804 28.1874 66.952 27.8354 67.248V70.464C28.1554 70.744 28.4994 70.884 28.8674 70.884ZM36.3635 72.144C35.4035 72.144 34.6035 71.824 33.9635 71.184C33.3235 70.544 33.0035 69.764 33.0035 68.844C33.0035 67.924 33.3275 67.144 33.9755 66.504C34.6235 65.856 35.4275 65.532 36.3875 65.532C37.3475 65.532 38.1475 65.852 38.7875 66.492C39.4355 67.132 39.7595 67.916 39.7595 68.844C39.7595 69.756 39.4355 70.536 38.7875 71.184C38.1395 71.824 37.3315 72.144 36.3635 72.144ZM36.3875 70.884C36.9635 70.884 37.4275 70.688 37.7795 70.296C38.1315 69.904 38.3075 69.42 38.3075 68.844C38.3075 68.276 38.1235 67.796 37.7555 67.404C37.3875 67.004 36.9235 66.804 36.3635 66.804C35.7955 66.804 35.3355 67 34.9835 67.392C34.6315 67.784 34.4555 68.268 34.4555 68.844C34.4555 69.404 34.6395 69.884 35.0075 70.284C35.3755 70.684 35.8355 70.884 36.3875 70.884ZM42.5942 72V66.912H40.5542V65.664H46.0982V66.912H44.0582V72H42.5942ZM50.2619 72.144C49.3019 72.144 48.5019 71.824 47.8619 71.184C47.2219 70.544 46.9019 69.764 46.9019 68.844C46.9019 67.924 47.2259 67.144 47.8739 66.504C48.5219 65.856 49.3259 65.532 50.2859 65.532C51.2459 65.532 52.0459 65.852 52.6859 66.492C53.3339 67.132 53.6579 67.916 53.6579 68.844C53.6579 69.756 53.3339 70.536 52.6859 71.184C52.0379 71.824 51.2299 72.144 50.2619 72.144ZM50.2859 70.884C50.8619 70.884 51.3259 70.688 51.6779 70.296C52.0299 69.904 52.2059 69.42 52.2059 68.844C52.2059 68.276 52.0219 67.796 51.6539 67.404C51.2859 67.004 50.8219 66.804 50.2619 66.804C49.6939 66.804 49.2339 67 48.8819 67.392C48.5299 67.784 48.3539 68.268 48.3539 68.844C48.3539 69.404 48.5379 69.884 48.9059 70.284C49.2739 70.684 49.7339 70.884 50.2859 70.884Z" fill="#5458EA"/>
</svg>
