<svg width="97" height="112" viewBox="0 0 97 112" fill="none" xmlns="http://www.w3.org/2000/svg">
<g opacity="0.6" filter="url(#filter0_f_71_14313)">
<rect x="16.5" y="16" width="64" height="80" rx="20" fill="#5458EA"/>
<rect x="17.5" y="17" width="62" height="78" rx="19" stroke="url(#paint0_linear_71_14313)" stroke-width="2"/>
</g>
<rect x="7.5" y="9" width="80" height="80" rx="20" fill="#5458EA"/>
<path d="M65.5 63V59.7081C65.5 58.0725 64.5042 56.6017 62.9856 55.9942L58.9173 54.3669C56.9857 53.5943 54.7844 54.4312 53.854 56.292L53.5 57C53.5 57 48.5 56 44.5 52C40.5 48 39.5 43 39.5 43L40.208 42.646C42.0688 41.7156 42.9057 39.5143 42.1331 37.5827L40.5058 33.5144C39.8983 31.9958 38.4275 31 36.7919 31H33.5C31.2909 31 29.5 32.7909 29.5 35C29.5 52.6731 43.8269 67 61.5 67C63.7091 67 65.5 65.2091 65.5 63Z" fill="white" fill-opacity="0.5" stroke="white" stroke-opacity="0.7" stroke-linejoin="round"/>
<defs>
<filter id="filter0_f_71_14313" x="0.5" y="0" width="96" height="112" filterUnits="userSpaceOnUse" color-interpolation-filters="sRGB">
<feFlood flood-opacity="0" result="BackgroundImageFix"/>
<feBlend mode="normal" in="SourceGraphic" in2="BackgroundImageFix" result="shape"/>
<feGaussianBlur stdDeviation="8" result="effect1_foregroundBlur_71_14313"/>
</filter>
<linearGradient id="paint0_linear_71_14313" x1="16.5" y1="16" x2="95.1441" y2="75.8274" gradientUnits="userSpaceOnUse">
<stop stop-color="white" stop-opacity="0.7"/>
<stop offset="1" stop-color="white" stop-opacity="0"/>
</linearGradient>
</defs>
</svg>
