<svg width="20" height="18" viewBox="0 0 20 18" fill="none" xmlns="http://www.w3.org/2000/svg">
<path d="M20 5.71004C20 7.13004 19.45 8.46004 18.45 9.46004L10.6 17.31C10.56 17.35 10.45 17.44 10.4 17.47C10.28 17.55 10.14 17.59 10 17.59C9.86 17.59 9.71 17.55 9.59 17.47C9.53 17.43 9.48 17.39 9.42 17.33L1.56 9.46004C0.549998 8.46004 0 7.13004 0 5.71004C0 4.29004 0.549998 2.96004 1.56 1.96004C3.63 -0.0999609 6.99 -0.0999609 9.06 1.96004L10 2.91004L10.95 1.96004C13.02 -0.0999609 16.38 -0.0999609 18.44 1.96004C19.45 2.96004 20 4.29004 20 5.71004Z" fill="#F34545"/>
</svg>
