<svg width="96" height="112" viewBox="0 0 96 112" fill="none" xmlns="http://www.w3.org/2000/svg">
<g opacity="0.6" filter="url(#filter0_f_69_11088)">
<rect x="16" y="16" width="64" height="80" rx="20" fill="#5458EA"/>
<rect x="17" y="17" width="62" height="78" rx="19" stroke="url(#paint0_linear_69_11088)" stroke-width="2"/>
</g>
<rect x="7" y="9" width="80" height="80" rx="20" fill="#5458EA"/>
<path fill-rule="evenodd" clip-rule="evenodd" d="M40.5 38.5C40.5 34.9101 43.4101 32 47 32C50.5899 32 53.5 34.9101 53.5 38.5V41H40.5V38.5ZM37.5 41.1404V38.5C37.5 33.2533 41.7533 29 47 29C52.2467 29 56.5 33.2533 56.5 38.5V41.1404C60.2013 41.8425 63 45.0944 63 49V61C63 65.4183 59.4183 69 55 69H39C34.5817 69 31 65.4183 31 61V49C31 45.0944 33.7987 41.8425 37.5 41.1404ZM47 51.5C47.8284 51.5 48.5 52.1716 48.5 53V57C48.5 57.8284 47.8284 58.5 47 58.5C46.1716 58.5 45.5 57.8284 45.5 57V53C45.5 52.1716 46.1716 51.5 47 51.5Z" fill="white" fill-opacity="0.5"/>
<defs>
<filter id="filter0_f_69_11088" x="0" y="0" width="96" height="112" filterUnits="userSpaceOnUse" color-interpolation-filters="sRGB">
<feFlood flood-opacity="0" result="BackgroundImageFix"/>
<feBlend mode="normal" in="SourceGraphic" in2="BackgroundImageFix" result="shape"/>
<feGaussianBlur stdDeviation="8" result="effect1_foregroundBlur_69_11088"/>
</filter>
<linearGradient id="paint0_linear_69_11088" x1="16" y1="16" x2="94.6441" y2="75.8274" gradientUnits="userSpaceOnUse">
<stop stop-color="white" stop-opacity="0.7"/>
<stop offset="1" stop-color="white" stop-opacity="0"/>
</linearGradient>
</defs>
</svg>
