<svg width="131" height="130" viewBox="0 0 131 130" fill="none" xmlns="http://www.w3.org/2000/svg">
<path fill-rule="evenodd" clip-rule="evenodd" d="M51.4505 15.6576C53.4597 12.6438 56.8422 10.8335 60.4643 10.8335H70.5353C74.1575 10.8335 77.54 12.6438 79.5492 15.6576L84.4582 23.021H104.771C107.014 23.021 108.833 24.8398 108.833 27.0835C108.833 29.3272 107.014 31.146 104.771 31.146H26.229C23.9853 31.146 22.1665 29.3272 22.1665 27.0835C22.1665 24.8398 23.9853 23.021 26.229 23.021H46.5415L51.4505 15.6576ZM81.7498 119.167H49.2498C37.2837 119.167 27.5832 109.466 27.5832 97.5002V37.9168H103.417V97.5002C103.417 109.466 93.716 119.167 81.7498 119.167ZM54.6665 55.521C56.9102 55.521 58.729 57.3398 58.729 59.5835V97.5002C58.729 99.7438 56.9102 101.563 54.6665 101.563C52.4229 101.563 50.604 99.7438 50.604 97.5002L50.604 59.5835C50.604 57.3398 52.4228 55.521 54.6665 55.521ZM76.3332 55.521C78.5768 55.521 80.3957 57.3398 80.3957 59.5835V97.5002C80.3957 99.7438 78.5768 101.563 76.3332 101.563C74.0895 101.563 72.2707 99.7438 72.2707 97.5002V59.5835C72.2707 57.3398 74.0895 55.521 76.3332 55.521Z" fill="url(#paint0_linear_193_18602)"/>
<defs>
<linearGradient id="paint0_linear_193_18602" x1="65.4998" y1="10.8335" x2="65.4998" y2="119.167" gradientUnits="userSpaceOnUse">
<stop stop-color="#F34545"/>
<stop offset="1" stop-color="#FFBABA"/>
</linearGradient>
</defs>
</svg>
